<svg xmlns:xlink="http://www.w3.org/1999/xlink" fil="#3a3d46" id="Layer_1" data-name="Layer 1" xmlns="http://www.w3.org/2000/svg" viewBox="0 0 17.98 18.98" width="25"  height="25" ><g id="Group_5362" data-name="Group 5362"><g id="Group_5327" data-name="Group 5327"><path d="M13.75,13.91l3.41,3.4c.17.18.36.35.52.53a1,1,0,0,1,.05,1.34,1,1,0,0,1-1.34,0l-.07-.07C15.17,18,14,16.9,12.92,15.73a1,1,0,0,0-1.36-.27l0,0a7.8,7.8,0,1,1,2.84-2.39C14.19,13.35,14,13.59,13.75,13.91Zm-5.84.55a6,6,0,1,0-6-6.06v0a6,6,0,0,0,5.94,6h.06Z" transform="translate(0 -0.49)"/></g></g></svg>