<svg xmlns:xlink="http://www.w3.org/1999/xlink" id="Layer_1" data-name="Layer 1" xmlns="http://www.w3.org/2000/svg" viewBox="0 0 18 20.25" width="25"  height="25" ><defs><style>.cls-1{stroke:#000;stroke-miterlimit:10;stroke-width:0.25px;}</style></defs><path class="cls-1" d="M.83,20.12a.7.7,0,0,1-.7-.7h0C.13,14.51,3.28,11.8,9,11.8s8.88,2.71,8.88,7.62a.7.7,0,0,1-.71.7H.83Zm.71-1.39H16.46c-.27-3.67-2.78-5.54-7.46-5.54s-7.19,1.87-7.46,5.54ZM4.39,4.83A4.56,4.56,0,0,1,8.81.13a1.33,1.33,0,0,1,.2,0,4.55,4.55,0,0,1,4.61,4.49v.21A4.83,4.83,0,0,1,9,9.83a4.83,4.83,0,0,1-4.62-5Zm1.39,0A3.44,3.44,0,0,0,9,8.44a3.44,3.44,0,0,0,3.22-3.61A3.2,3.2,0,0,0,9.14,1.52H9A3.17,3.17,0,0,0,5.77,4.6a1.62,1.62,0,0,0,0,.22Z"/></svg>