<svg xmlns:xlink="http://www.w3.org/1999/xlink" fill="#3a3d46" id="Layer_1" data-name="Layer 1" xmlns="http://www.w3.org/2000/svg" viewBox="0 0 47.8 41.8" width="47.8"  height="41.8" ><g id="Icon-Heart"><path id="Fill-18" d="M23.9,41.8l-.8-.7C4.9,26.3,0,21.1,0,12.6A12.61,12.61,0,0,1,12.6,0c5.8,0,9.1,3.3,11.3,5.8C26.1,3.3,29.4,0,35.2,0A12.61,12.61,0,0,1,47.8,12.6c0,8.5-4.9,13.7-23.1,28.5ZM12.6,2.6a10,10,0,0,0-10,10h0c0,7.3,4.6,12.1,21.3,25.8C40.6,24.7,45.2,19.9,45.2,12.6a10,10,0,0,0-10-10c-5,0-7.7,3-9.8,5.4L23.9,9.7,22.4,8C20.3,5.6,17.6,2.6,12.6,2.6Z"/></g></svg>