<svg width="28" height="29" viewBox="0 0 28 29" fill="none" xmlns="http://www.w3.org/2000/svg">
<rect y="0.109619" width="28" height="28" rx="4" fill="#1F1F1F"/>
<path d="M10.5001 5.77637H17.5001C20.1667 5.77637 22.3334 7.94303 22.3334 10.6097V17.6097C22.3334 18.8916 21.8242 20.121 20.9178 21.0274C20.0113 21.9338 18.782 22.443 17.5001 22.443H10.5001C7.83342 22.443 5.66675 20.2764 5.66675 17.6097V10.6097C5.66675 9.32782 6.17597 8.09844 7.0824 7.19202C7.98882 6.28559 9.2182 5.77637 10.5001 5.77637ZM10.3334 7.44303C9.53777 7.44303 8.7747 7.7591 8.21209 8.32171C7.64949 8.88432 7.33341 9.64738 7.33341 10.443V17.7764C7.33341 19.4347 8.67508 20.7764 10.3334 20.7764H17.6667C18.4624 20.7764 19.2255 20.4603 19.7881 19.8977C20.3507 19.3351 20.6667 18.572 20.6667 17.7764V10.443C20.6667 8.7847 19.3251 7.44303 17.6667 7.44303H10.3334ZM18.3751 8.69303C18.6513 8.69303 18.9163 8.80278 19.1117 8.99813C19.307 9.19348 19.4167 9.45843 19.4167 9.7347C19.4167 10.011 19.307 10.2759 19.1117 10.4713C18.9163 10.6666 18.6513 10.7764 18.3751 10.7764C18.0988 10.7764 17.8339 10.6666 17.6385 10.4713C17.4432 10.2759 17.3334 10.011 17.3334 9.7347C17.3334 9.45843 17.4432 9.19348 17.6385 8.99813C17.8339 8.80278 18.0988 8.69303 18.3751 8.69303ZM14.0001 9.94303C15.1052 9.94303 16.165 10.382 16.9464 11.1634C17.7278 11.9448 18.1667 13.0046 18.1667 14.1097C18.1667 15.2148 17.7278 16.2746 16.9464 17.056C16.165 17.8374 15.1052 18.2764 14.0001 18.2764C12.895 18.2764 11.8352 17.8374 11.0538 17.056C10.2724 16.2746 9.83342 15.2148 9.83342 14.1097C9.83342 13.0046 10.2724 11.9448 11.0538 11.1634C11.8352 10.382 12.895 9.94303 14.0001 9.94303ZM14.0001 11.6097C13.337 11.6097 12.7012 11.8731 12.2323 12.3419C11.7635 12.8108 11.5001 13.4467 11.5001 14.1097C11.5001 14.7727 11.7635 15.4086 12.2323 15.8775C12.7012 16.3463 13.337 16.6097 14.0001 16.6097C14.6631 16.6097 15.299 16.3463 15.7678 15.8775C16.2367 15.4086 16.5001 14.7727 16.5001 14.1097C16.5001 13.4467 16.2367 12.8108 15.7678 12.3419C15.299 11.8731 14.6631 11.6097 14.0001 11.6097Z" fill="white"/>
</svg>
