<svg width="28" height="29" viewBox="0 0 28 29" fill="none" xmlns="http://www.w3.org/2000/svg">
<rect y="0.109619" width="28" height="28" rx="4" fill="#1F1F1F"/>
<path d="M19.8749 8.20117C19.1109 7.42944 18.2009 6.81756 17.198 6.40122C16.195 5.98487 15.1192 5.77239 14.0333 5.77617C9.48325 5.77617 5.77492 9.48451 5.77492 14.0345C5.77492 15.4928 6.15825 16.9095 6.87492 18.1595L5.70825 22.4428L10.0833 21.2928C11.2916 21.9512 12.6499 22.3012 14.0333 22.3012C18.5833 22.3012 22.2916 18.5928 22.2916 14.0428C22.2916 11.8345 21.4333 9.75951 19.8749 8.20117ZM14.0333 20.9012C12.7999 20.9012 11.5916 20.5678 10.5333 19.9428L10.2833 19.7928L7.68325 20.4762L8.37492 17.9428L8.20825 17.6845C7.52304 16.5903 7.1592 15.3255 7.15825 14.0345C7.15825 10.2512 10.2416 7.16784 14.0249 7.16784C15.8583 7.16784 17.5833 7.88451 18.8749 9.18451C19.5145 9.82114 20.0213 10.5784 20.3661 11.4124C20.7108 12.2463 20.8866 13.1404 20.8833 14.0428C20.8999 17.8262 17.8166 20.9012 14.0333 20.9012ZM17.7999 15.7678C17.5916 15.6678 16.5749 15.1678 16.3916 15.0928C16.1999 15.0262 16.0666 14.9928 15.9249 15.1928C15.7833 15.4012 15.3916 15.8678 15.2749 16.0012C15.1583 16.1428 15.0333 16.1595 14.8249 16.0512C14.6166 15.9512 13.9499 15.7262 13.1666 15.0262C12.5499 14.4762 12.1416 13.8012 12.0166 13.5928C11.8999 13.3845 11.9999 13.2762 12.1083 13.1678C12.1999 13.0762 12.3166 12.9262 12.4166 12.8095C12.5166 12.6928 12.5583 12.6012 12.6249 12.4678C12.6916 12.3262 12.6583 12.2095 12.6083 12.1095C12.5583 12.0095 12.1416 10.9928 11.9749 10.5762C11.8083 10.1762 11.6333 10.2262 11.5083 10.2178H11.1083C10.9666 10.2178 10.7499 10.2678 10.5583 10.4762C10.3749 10.6845 9.84159 11.1845 9.84159 12.2012C9.84159 13.2178 10.5833 14.2012 10.6833 14.3345C10.7833 14.4762 12.1416 16.5595 14.2083 17.4512C14.6999 17.6678 15.0833 17.7928 15.3833 17.8845C15.8749 18.0428 16.3249 18.0178 16.6833 17.9678C17.0833 17.9095 17.9083 17.4678 18.0749 16.9845C18.2499 16.5012 18.2499 16.0928 18.1916 16.0012C18.1333 15.9095 18.0083 15.8678 17.7999 15.7678Z" fill="white"/>
</svg>
